<svg width="798.62718" height="689.22258" xmlns="http://www.w3.org/2000/svg">
 <title>dev_productivity</title>

 <g>
  <title>Layer 1</title>
  <circle id="svg_1" fill="#a0616a" r="73.53607" cy="118.40512" cx="435.92153"/>
  <path id="svg_2" fill="#a0616a" d="m381.03588,155.17316s13.8546,104.44259 -7.46016,116.16564s126.8231,12.78888 126.8231,12.78888s-33.03794,-90.58789 -18.11762,-118.29718l-101.24532,-10.65734z"/>
  <path id="svg_3" fill="#ffffff" d="m609.90358,281.98934l-12.32,56.1l-26.05,118.69l-0.78,6.5l-8.99,75.25l-5.98,49.99l-4.01,33.58c-24.38,12.53 -42.05,21.18 -42.05,21.18s-1.52,-7.62 -3.97,-17.37c-17.11,5.13 -48.77,13.64 -75.6,15.34c9.77,10.89 14.26,21.12 8.17,28.67c-18.38,22.76 -94.26,-24.92 -120.8,-42.7a71.84076,71.84076 0 0 0 -0.7,12.86l-20.31,-15.62l2.01,-35.94l3.39,-60.81l4.26,-76.26a80.06413,80.06413 0 0 1 -3.37,-10.03c-6.22,-22.12 -13.77,-66.29 -19.56,-103.33c-4.66,-29.81 -8.16,-55 -8.9,-60.36c-0.1,-0.7 -0.15,-1.06 -0.15,-1.06l112.43,-49.68c7.99,18.53 45.30005,24.1 45.30005,24.1c30.91,-2.13 55.14,-18.43 55.14,-18.43l122.83995,49.33z"/>
  <path id="svg_4" fill="#a0616a" d="m516.92022,624.63605s-4.76,1.63 -12.5,3.94c-17.11,5.13 -48.77,13.64 -75.6,15.34c-23.1,1.48 -42.62,-2.08 -46.19,-17.15c-1.53,-6.48 0.64,-11.81 5.37,-16.19c14.12,-13.09 51,-17.78 80.25,-19.39c8.26,-0.45 15.9,-0.66 22.26,-0.74c10.8,-0.14 17.88,0.08 17.88,0.08l0.17,0.66l8.36,33.45z"/>
  <path id="svg_5" fill="#2f2e41" d="m374.74633,48.84678l-13.74945,-5.50449s28.74878,-31.65079 68.74742,-28.89843l-11.24986,-12.38521s27.49889,-11.00886 52.49786,17.88956c13.14149,15.19123 28.34631,33.04782 37.82491,53.163l14.72472,0l-6.14554,13.53179l21.50942,13.5318l-22.07731,-2.43059a75.61673,75.61673 0 0 1 0.5991,22.445a29.04072,29.04072 0 0 1 -10.63442,18.99788l0,0s-17.05183,-35.29562 -17.05183,-40.80013l0,13.76123s-13.74944,-12.38505 -13.74944,-20.64172l-7.49963,9.63282l-3.74981,-15.13741l-46.248,15.13741l7.49962,-12.385l-28.74878,4.12833l11.24986,-15.13741s-32.49859,17.88956 -33.74881,33.027c-1.24979,15.1372 -10.76227,29.48068 -10.76227,29.48068s-25.48625,-70.7644 10.76224,-91.40611z"/>
  <path id="svg_6" fill="#ffffff" d="m688.50023,542.56604c-7.49,8.12 -26.05,20.35 -48.55,33.59c-8.37,4.92 -17.28,9.99 -26.37,15.03c-21.69,12.03 -44.4,23.95 -63.14,33.58c-24.38,12.53 -42.05,21.18 -42.05,21.18s-1.52,-7.62 -3.97,-17.37c-3.28,-13.05 -8.22,-29.92 -13.37,-37.39c-0.18,-0.26 -0.36,-0.5 -0.54,-0.74c-1.5,-1.97 -3.01,-3.12 -4.5,-3.12l74.42,-46.13l32.16,-19.94l-23.17,-55.31l-29.06,-69.38l17.54,-55.81l17.63,-56.1l33.04,0s10.94,23.88 24.93,57.18005c2.09,4.98 4.25,10.17 6.45,15.53c28.77999,69.99994 64.65999,167.74994 48.55,185.19995z"/>
  <path id="svg_7" fill="#a0616a" d="m436.99022,672.58606c-18.38,22.76 -94.26,-24.92 -120.8,-42.7c-5.78,-3.87 -9.22,-6.32 -9.22,-6.32l24.28,-32.38l7.69,-10.25s6.88,3.65 17.05,9.59c0.37,0.22 0.74,0.44 1.12,0.66c8.77,5.15 19.78,11.88 30.89,19.39c15.33,10.37 30.83,22.2 40.82,33.34c9.77004,10.88997 14.26003,21.11995 8.17,28.67z"/>
  <path id="svg_8" fill="#ffffff" d="m355.99022,590.52606a47.78152,47.78152 0 0 0 -8.1,0.66c-22.99,3.95 -29.77,24.76 -31.7,38.7a71.84076,71.84076 0 0 0 -0.7,12.86l-20.31,-15.62l-7.4,-5.69c-17.81,-6.21 -33.68,-17.24 -47.44,-30.25a238.48245,238.48245 0 0 1 -31.95,-37.89a334.15026,334.15026 0 0 1 -24.72,-42.4a31.18368,31.18368 0 0 1 -0.43,-26.45l25.15,-56.05l36.76,-81.92q0.40494,-2.92492 0.88995,-5.72c7.29,-41.8 26.82,-60.36 26.82,-60.36l14.92,0l9.98,60.36l12.4,74.99l-8.69,28.34l-20.08,65.44995l19.19,20.84l55.41005,60.15005z"/>
  <path id="svg_9" fill="#6c63ff" d="m372.87658,415.80588l12.75489,14.88081c4.73879,-0.90351 9.68742,-1.96527 14.78434,-3.15766l-3.66344,-11.72315l8.9575,10.45044c53.9974,-13.28079 120.92677,-39.10138 120.92677,-39.10138s-72.25715,5.29821 -126.20826,-6.48861c-23.87075,-5.21509 -48.43073,6.61811 -58.22631,29.0024c-5.69358,13.01063 -4.7994,24.28275 15.394,24.28275a133.3748,133.3748 0 0 0 20.35271,-1.91438l-5.0722,-16.23122z"/>
  <path id="svg_10" fill="#ffffff" d="m663.65026,660.38605l0,6.07a13.34012,13.34012 0 0 1 -0.91,4.87a13.68758,13.68758 0 0 1 -0.97,2a13.43748,13.43748 0 0 1 -11.55,6.56l-446.55,0a13.4374,13.4374 0 0 1 -11.55,-6.56a13.68249,13.68249 0 0 1 -0.97,-2a13.34012,13.34012 0 0 1 -0.91,-4.87l0,-6.07a13.42641,13.42641 0 0 1 13.43,-13.43l25.74,0l0,-2.83a0.55908,0.55908 0 0 1 0.56,-0.56l13.43,0a0.55908,0.55908 0 0 1 0.56,0.56l0,2.83l8.38995,0l0,-2.83a0.55908,0.55908 0 0 1 0.56,-0.56l13.43,0a0.55908,0.55908 0 0 1 0.56,0.56l0,2.83l8.4,0l0,-2.83a0.55908,0.55908 0 0 1 0.56,-0.56l13.43,0a0.55908,0.55908 0 0 1 0.56,0.56l0,2.83l8.39,0l0,-2.83a0.55908,0.55908 0 0 1 0.56,-0.56l13.43,0a0.55908,0.55908 0 0 1 0.56,0.56l0,2.83l8.39,0l0,-2.83a0.55908,0.55908 0 0 1 0.56,-0.56l13.43,0a0.55908,0.55908 0 0 1 0.56,0.56l0,2.83l8.4,0l0,-2.83a0.55908,0.55908 0 0 1 0.56,-0.56l13.43,0a0.55908,0.55908 0 0 1 0.56,0.56l0,2.83l8.39,0l0,-2.83a0.55908,0.55908 0 0 1 0.56,-0.56l105.2,0a0.55908,0.55908 0 0 1 0.56,0.56l0,2.83l8.4,0l0,-2.83a0.55908,0.55908 0 0 1 0.56,-0.56l13.43005,0a0.56556,0.56556 0 0 1 0.56,0.56l0,2.83l8.39,0l0,-2.83a0.55908,0.55908 0 0 1 0.56,-0.56l13.43,0a0.55909,0.55909 0 0 1 0.56005,0.56l0,2.83l8.39,0l0,-2.83a0.55908,0.55908 0 0 1 0.56,-0.56l13.43,0a0.55908,0.55908 0 0 1 0.56,0.56l0,2.83l8.4,0l0,-2.83a0.55908,0.55908 0 0 1 0.56,-0.56l13.43,0a0.557,0.557 0 0 1 0.55,0.56l0,2.83l8.4,0l0,-2.83a0.55908,0.55908 0 0 1 0.56,-0.56l13.43,0a0.55908,0.55908 0 0 1 0.56,0.56l0,2.83l8.39,0l0,-2.83a0.55908,0.55908 0 0 1 0.56,-0.56l13.43,0a0.55908,0.55908 0 0 1 0.56,0.56l0,2.83l39.17,0a13.42642,13.42642 0 0 1 13.42995,13.43z"/>
  <rect id="svg_11" fill="#3f3d56" height="2" width="732.99951" y="671.32605" x="60.50024"/>
  <path id="svg_12" fill="#ffffff" d="m626.69449,405.75658l-166.44291,0l0,-3.43053l-75.47166,0l0,3.43053l-167.129,0a11.25861,11.25861 0 0 0 -11.25861,11.25861l0,227.9115a11.25864,11.25864 0 0 0 11.25861,11.25865l409.04357,0a11.25864,11.25864 0 0 0 11.25861,-11.25865l0,-227.9115a11.2586,11.2586 0 0 0 -11.25861,-11.25861z"/>
  <circle id="svg_13" stroke-width="2" stroke-miterlimit="10" stroke="#d0cde1" fill="none" r="25" cy="484.32605" cx="423.50024"/>
  <circle id="svg_14" fill="#d0cde1" r="25" cy="491.99272" cx="414.16691"/>
  <rect id="svg_15" fill="#ffffff" height="28" width="28" y="661.22258" x="80.44606"/>
  <path id="svg_16" fill="#3f3d56" d="m91.45,639.22299l0,34l34,0l0,-34l-34,0zm32.52,32.52l-31.05,0l0,-31.04l31.05,0l0,31.04z"/>
  <rect id="svg_17" fill="#ffffff" height="28" width="28" y="661.22258" x="728.44606"/>
  <path id="svg_18" fill="#3f3d56" d="m739.45,639.22299l0,34l34,0l0,-34l-34,0zm32.52,32.52l-31.05,0l0,-31.04l31.05,0l0,31.04z"/>
  <path id="svg_34" fill="#ffffff" d="m150.59365,599.75404c0.93308,31.95 -17.73513,43.65892 -41.1632,44.34312q-0.81629,0.02383 -1.62524,0.02922q-1.62969,0.01242 -3.22774,-0.05428c-21.18834,-0.87961 -37.96015,-12.12685 -38.82791,-41.84025c-0.898,-30.74968 37.26893,-70.70292 40.1325,-73.65827l0.00511,-0.00276c0.10878,-0.11262 0.16448,-0.169 0.16448,-0.169s43.609,39.40485 44.542,71.35222z"/>
  <path id="svg_35" fill="#3f3d56" d="m107.74372,639.2551l14.88232,-22.1315l-14.85188,24.51243l0.031,2.49035q-1.62969,0.01242 -3.22774,-0.05428l0.73816,-32.01181l-0.02022,-0.247l0.02723,-0.04771l0.07065,-3.02493l-16.2979,-23.66265l16.27867,21.39867l0.05777,0.63938l0.55752,-24.18618l-14.077,-24.53275l14.11708,20.28394l-0.14735,-50.10752l0.00032,-0.16678l0.00479,0.164l0.93446,39.49147l12.8295,-16.04146l-12.7875,19.44356l0.28,21.634l11.80578,-21.11394l-11.76239,24.29451l0.15587,12.02957l17.16879,-29.41146l-17.11659,33.60807l0.34866,26.75002z"/>
  <path id="svg_36" fill="#ffffff" d="m798.59365,599.75404c0.93308,31.95 -17.73513,43.65892 -41.1632,44.34312q-0.81628,0.02383 -1.62524,0.02922q-1.62969,0.01242 -3.22774,-0.05428c-21.18834,-0.87961 -37.96015,-12.12685 -38.82791,-41.84025c-0.898,-30.74968 37.26893,-70.70292 40.1325,-73.65827l0.00511,-0.00276c0.10878,-0.11262 0.16448,-0.169 0.16448,-0.169s43.609,39.40485 44.542,71.35222z"/>
  <path id="svg_37" fill="#3f3d56" d="m755.74372,639.2551l14.88232,-22.1315l-14.85188,24.51243l0.031,2.49035q-1.62969,0.01242 -3.22774,-0.05428l0.73816,-32.01181l-0.02022,-0.247l0.02723,-0.04771l0.07065,-3.02493l-16.2979,-23.66265l16.27867,21.39867l0.05777,0.63938l0.55752,-24.18618l-14.077,-24.53275l14.11708,20.28394l-0.14735,-50.10752l0.00032,-0.16678l0.00479,0.164l0.93446,39.49147l12.8295,-16.04146l-12.7875,19.44356l0.28,21.634l11.80578,-21.11394l-11.76239,24.29451l0.15587,12.02957l17.16879,-29.41146l-17.11659,33.60807l0.34866,26.75002z"/>
  <path d="m362.31357,525.60938c-1,-1 -1,-1 1,-1c1,0 5,0 9,0c4,0 7.96384,1.11584 11,2c3.95868,1.15277 7,2 8,2l2,0l1,1l1,1" id="svg_38" opacity="undefined" fill-opacity="null" stroke-opacity="null" stroke-dasharray="null" stroke-width="null" stroke="null" fill="none"/>
 </g>
</svg>